<svg width="991" height="328" viewBox="0 0 991 328" fill="none" xmlns="http://www.w3.org/2000/svg">
<path d="M481.459 111.684V275.028C481.459 281.751 486.688 285.237 493.411 285.237C500.134 285.237 505.363 281.751 505.363 275.028V111.684H561.886C567.613 111.684 571.348 106.704 571.348 100.977C571.348 95.001 567.862 89.772 561.886 89.772H424.687C418.711 89.772 415.225 95.001 415.225 100.977C415.225 106.704 418.711 111.684 424.936 111.684H481.459ZM559.38 238.674C559.38 269.052 575.565 287.478 604.947 287.478C629.847 287.478 644.289 274.779 652.008 257.349C651.261 261.333 650.514 266.313 650.514 269.052V276.024C650.514 282.249 655.245 285.237 661.968 285.237C668.442 285.237 672.924 282 672.924 275.277V154.263C672.924 147.54 668.193 144.303 661.719 144.303C654.996 144.303 650.265 147.54 650.265 154.263V223.485C650.265 233.196 647.775 240.915 641.799 249.381C633.333 261.084 622.626 267.309 609.429 267.309C591.003 267.309 582.288 255.357 582.288 233.943V154.263C582.288 147.54 577.557 144.303 570.834 144.303C564.111 144.303 559.38 147.54 559.38 154.263V238.674ZM718.412 270.795C718.412 267.558 717.914 262.578 717.416 258.843C725.384 276.273 740.324 287.478 763.232 287.478C800.084 287.478 822.743 257.847 822.743 214.023C822.743 169.701 801.329 142.311 763.979 142.311C741.071 142.311 726.38 153.018 717.167 170.697C717.914 164.97 718.412 157.749 718.412 152.52V98.238C718.412 91.515 713.93 88.278 707.456 88.278C700.484 88.278 696.251 91.515 696.251 98.238V275.277C696.251 282 700.484 285.237 707.456 285.237C714.677 285.237 718.412 281.502 718.412 276.024V270.795ZM760.991 161.733C785.891 161.733 799.835 181.902 799.835 214.272C799.835 246.393 785.393 267.807 760.244 267.807C734.099 267.807 717.914 245.397 717.914 214.521C717.914 183.894 733.601 161.733 760.991 161.733ZM942.518 219.003C950.237 219.003 954.968 214.272 954.968 205.308C954.968 204.561 954.968 204.063 954.968 203.316C952.478 170.697 932.06 142.311 895.706 142.311C855.119 142.311 832.709 172.44 832.709 215.517C832.709 258.594 856.364 287.478 897.2 287.478C929.57 287.478 944.012 271.044 951.98 254.61C952.976 253.116 953.225 251.622 953.225 250.128C953.225 245.646 949.739 242.658 945.506 241.413C943.763 240.915 942.02 240.417 940.277 240.417C936.791 240.417 933.554 242.16 931.313 246.642C925.337 259.839 915.377 268.803 897.449 268.803C870.557 268.803 855.368 249.63 854.87 219.003H942.518ZM855.617 200.826C858.854 176.424 871.802 160.488 895.706 160.488C918.614 160.488 929.321 178.665 932.309 196.344C932.309 196.842 932.309 197.34 932.309 197.589C932.309 199.83 931.313 200.826 928.574 200.826H855.617Z" fill="#49C6E5"/>
<path d="M100.347 86.037C46.812 86.037 13.197 125.628 13.197 186.633C13.197 248.385 47.061 287.727 100.347 287.727C153.633 287.727 186.999 248.136 186.999 186.882C186.999 125.379 153.633 86.037 100.347 86.037ZM100.347 107.451C138.195 107.451 162.348 138.327 162.348 185.388C162.348 235.437 139.191 266.064 100.347 266.064C62.25 266.064 37.848 234.939 37.848 186.882C37.848 138.825 61.752 107.451 100.347 107.451ZM204.849 238.674C204.849 269.052 221.034 287.478 250.416 287.478C275.316 287.478 289.758 274.779 297.477 257.349C296.73 261.333 295.983 266.313 295.983 269.052V276.024C295.983 282.249 300.714 285.237 307.437 285.237C313.911 285.237 318.393 282 318.393 275.277V154.263C318.393 147.54 313.662 144.303 307.188 144.303C300.465 144.303 295.734 147.54 295.734 154.263V223.485C295.734 233.196 293.244 240.915 287.268 249.381C278.802 261.084 268.095 267.309 254.898 267.309C236.472 267.309 227.757 255.357 227.757 233.943V154.263C227.757 147.54 223.026 144.303 216.303 144.303C209.58 144.303 204.849 147.54 204.849 154.263V238.674Z" fill="#49C6E5"/>
<path d="M458.252 171.018C468.087 179.403 468.087 194.597 458.252 202.982L368.373 279.596C354.74 291.218 333.75 281.529 333.75 263.614L333.75 110.386C333.75 92.471 354.74 82.7825 368.373 94.4039L458.252 171.018Z" fill="#8BD7D2"/>
<path d="M429.47 171.033C439.283 179.416 439.283 194.584 429.47 202.967L381.43 244.008C367.802 255.652 346.79 245.967 346.79 228.042L346.79 145.958C346.79 128.033 367.802 118.348 381.43 129.992L429.47 171.033Z" fill="#00BD9D"/>
</svg>
