<svg width="942" height="202" viewBox="0 0 942 202" fill="none" xmlns="http://www.w3.org/2000/svg">
<path d="M468.459 25.684V189.028C468.459 195.751 473.688 199.237 480.411 199.237C487.134 199.237 492.363 195.751 492.363 189.028V25.684H548.886C554.613 25.684 558.348 20.704 558.348 14.977C558.348 9.00101 554.862 3.77202 548.886 3.77202H411.687C405.711 3.77202 402.225 9.00101 402.225 14.977C402.225 20.704 405.711 25.684 411.936 25.684H468.459ZM546.38 152.674C546.38 183.052 562.565 201.478 591.947 201.478C616.847 201.478 631.289 188.779 639.008 171.349C638.261 175.333 637.514 180.313 637.514 183.052V190.024C637.514 196.249 642.245 199.237 648.968 199.237C655.442 199.237 659.924 196 659.924 189.277V68.263C659.924 61.54 655.193 58.303 648.719 58.303C641.996 58.303 637.265 61.54 637.265 68.263V137.485C637.265 147.196 634.775 154.915 628.799 163.381C620.333 175.084 609.626 181.309 596.429 181.309C578.003 181.309 569.288 169.357 569.288 147.943V68.263C569.288 61.54 564.557 58.303 557.834 58.303C551.111 58.303 546.38 61.54 546.38 68.263V152.674ZM705.412 184.795C705.412 181.558 704.914 176.578 704.416 172.843C712.384 190.273 727.324 201.478 750.232 201.478C787.084 201.478 809.743 171.847 809.743 128.023C809.743 83.701 788.329 56.311 750.979 56.311C728.071 56.311 713.38 67.018 704.167 84.697C704.914 78.97 705.412 71.749 705.412 66.52V12.238C705.412 5.51501 700.93 2.27802 694.456 2.27802C687.484 2.27802 683.251 5.51501 683.251 12.238V189.277C683.251 196 687.484 199.237 694.456 199.237C701.677 199.237 705.412 195.502 705.412 190.024V184.795ZM747.991 75.733C772.891 75.733 786.835 95.902 786.835 128.272C786.835 160.393 772.393 181.807 747.244 181.807C721.099 181.807 704.914 159.397 704.914 128.521C704.914 97.894 720.601 75.733 747.991 75.733ZM929.518 133.003C937.237 133.003 941.968 128.272 941.968 119.308C941.968 118.561 941.968 118.063 941.968 117.316C939.478 84.697 919.06 56.311 882.706 56.311C842.119 56.311 819.709 86.44 819.709 129.517C819.709 172.594 843.364 201.478 884.2 201.478C916.57 201.478 931.012 185.044 938.98 168.61C939.976 167.116 940.225 165.622 940.225 164.128C940.225 159.646 936.739 156.658 932.506 155.413C930.763 154.915 929.02 154.417 927.277 154.417C923.791 154.417 920.554 156.16 918.313 160.642C912.337 173.839 902.377 182.803 884.449 182.803C857.557 182.803 842.368 163.63 841.87 133.003H929.518ZM842.617 114.826C845.854 90.424 858.802 74.488 882.706 74.488C905.614 74.488 916.321 92.665 919.309 110.344C919.309 110.842 919.309 111.34 919.309 111.589C919.309 113.83 918.313 114.826 915.574 114.826H842.617Z" fill="current"/>
<path d="M87.3468 0.0369873C33.8118 0.0369873 0.196777 39.628 0.196777 100.633C0.196777 162.385 34.0608 201.727 87.3468 201.727C140.633 201.727 173.999 162.136 173.999 100.882C173.999 39.379 140.633 0.0369873 87.3468 0.0369873ZM87.3468 21.451C125.195 21.451 149.348 52.327 149.348 99.388C149.348 149.437 126.191 180.064 87.3468 180.064C49.2498 180.064 24.8478 148.939 24.8478 100.882C24.8478 52.825 48.7518 21.451 87.3468 21.451ZM191.849 152.674C191.849 183.052 208.034 201.478 237.416 201.478C262.316 201.478 276.758 188.779 284.477 171.349C283.73 175.333 282.983 180.313 282.983 183.052V190.024C282.983 196.249 287.714 199.237 294.437 199.237C300.911 199.237 305.393 196 305.393 189.277V68.263C305.393 61.54 300.662 58.303 294.188 58.303C287.465 58.303 282.734 61.54 282.734 68.263V137.485C282.734 147.196 280.244 154.915 274.268 163.381C265.802 175.084 255.095 181.309 241.898 181.309C223.472 181.309 214.757 169.357 214.757 147.943V68.263C214.757 61.54 210.026 58.303 203.303 58.303C196.58 58.303 191.849 61.54 191.849 68.263V152.674Z" fill="current"/>
<path d="M445.252 85.018C455.087 93.403 455.087 108.597 445.252 116.982L355.373 193.596C341.74 205.218 320.75 195.529 320.75 177.614V24.386C320.75 6.47098 341.74 -3.21752 355.373 8.40388L445.252 85.018Z" fill="#8BD7D2"/>
<path d="M416.47 85.033C426.283 93.416 426.283 108.584 416.47 116.967L368.43 158.008C354.802 169.652 333.79 159.967 333.79 142.042V59.958C333.79 42.033 354.802 32.348 368.43 43.992L416.47 85.033Z" fill="#00BD9D"/>
</svg>
