<svg width="982" height="282" viewBox="0 0 982 282" fill="none" xmlns="http://www.w3.org/2000/svg">
<path d="M465.252 125.018C475.087 133.403 475.087 148.597 465.252 156.982L375.373 233.596C361.74 245.218 340.75 235.529 340.75 217.614L340.75 64.3855C340.75 46.471 361.74 36.7825 375.373 48.4039L465.252 125.018Z" fill="#8BD7D2"/>
<path d="M436.47 125.033C446.283 133.416 446.283 148.584 436.47 156.967L388.43 198.008C374.802 209.652 353.79 199.967 353.79 182.042L353.79 99.9584C353.79 82.033 374.802 72.3482 388.43 83.9917L436.47 125.033Z" fill="#00BD9D"/>
<path d="M87.15 40C33.615 40 0 79.591 0 140.596C0 202.348 33.864 241.69 87.15 241.69C140.436 241.69 173.802 202.099 173.802 140.845C173.802 79.342 140.436 40 87.15 40ZM87.15 61.414C124.998 61.414 149.151 92.29 149.151 139.351C149.151 189.4 125.994 220.027 87.15 220.027C49.053 220.027 24.651 188.902 24.651 140.845C24.651 92.788 48.555 61.414 87.15 61.414ZM191.652 192.637C191.652 223.015 207.837 241.441 237.219 241.441C262.119 241.441 276.561 228.742 284.28 211.312C283.533 215.296 282.786 220.276 282.786 223.015V229.987C282.786 236.212 287.517 239.2 294.24 239.2C300.714 239.2 305.196 235.963 305.196 229.24V108.226C305.196 101.503 300.465 98.266 293.991 98.266C287.268 98.266 282.537 101.503 282.537 108.226V177.448C282.537 187.159 280.047 194.878 274.071 203.344C265.605 215.047 254.898 221.272 241.701 221.272C223.275 221.272 214.56 209.32 214.56 187.906V108.226C214.56 101.503 209.829 98.266 203.106 98.266C196.383 98.266 191.652 101.503 191.652 108.226V192.637Z" fill="current"/>
<path d="M508.234 66.406V229.75C508.234 236.473 513.463 239.959 520.186 239.959C526.909 239.959 532.138 236.473 532.138 229.75V66.406H588.661C594.388 66.406 598.123 61.426 598.123 55.699C598.123 49.723 594.637 44.494 588.661 44.494H451.462C445.486 44.494 442 49.723 442 55.699C442 61.426 445.486 66.406 451.711 66.406H508.234ZM586.155 193.396C586.155 223.774 602.34 242.2 631.722 242.2C656.622 242.2 671.064 229.501 678.783 212.071C678.036 216.055 677.289 221.035 677.289 223.774V230.746C677.289 236.971 682.02 239.959 688.743 239.959C695.217 239.959 699.699 236.722 699.699 229.999V108.985C699.699 102.262 694.968 99.025 688.494 99.025C681.771 99.025 677.04 102.262 677.04 108.985V178.207C677.04 187.918 674.55 195.637 668.574 204.103C660.108 215.806 649.401 222.031 636.204 222.031C617.778 222.031 609.063 210.079 609.063 188.665V108.985C609.063 102.262 604.332 99.025 597.609 99.025C590.886 99.025 586.155 102.262 586.155 108.985V193.396ZM745.187 225.517C745.187 222.28 744.689 217.3 744.191 213.565C752.159 230.995 767.099 242.2 790.007 242.2C826.859 242.2 849.518 212.569 849.518 168.745C849.518 124.423 828.104 97.033 790.754 97.033C767.846 97.033 753.155 107.74 743.942 125.419C744.689 119.692 745.187 112.471 745.187 107.242V52.96C745.187 46.237 740.705 43 734.231 43C727.259 43 723.026 46.237 723.026 52.96V229.999C723.026 236.722 727.259 239.959 734.231 239.959C741.452 239.959 745.187 236.224 745.187 230.746V225.517ZM787.766 116.455C812.666 116.455 826.61 136.624 826.61 168.994C826.61 201.115 812.168 222.529 787.019 222.529C760.874 222.529 744.689 200.119 744.689 169.243C744.689 138.616 760.376 116.455 787.766 116.455ZM969.293 173.725C977.012 173.725 981.743 168.994 981.743 160.03C981.743 159.283 981.743 158.785 981.743 158.038C979.253 125.419 958.835 97.033 922.481 97.033C881.894 97.033 859.484 127.162 859.484 170.239C859.484 213.316 883.139 242.2 923.975 242.2C956.345 242.2 970.787 225.766 978.755 209.332C979.751 207.838 980 206.344 980 204.85C980 200.368 976.514 197.38 972.281 196.135C970.538 195.637 968.795 195.139 967.052 195.139C963.566 195.139 960.329 196.882 958.088 201.364C952.112 214.561 942.152 223.525 924.224 223.525C897.332 223.525 882.143 204.352 881.645 173.725H969.293ZM882.392 155.548C885.629 131.146 898.577 115.21 922.481 115.21C945.389 115.21 956.096 133.387 959.084 151.066C959.084 151.564 959.084 152.062 959.084 152.311C959.084 154.552 958.088 155.548 955.349 155.548H882.392Z" fill="current"/>
</svg>
